<svg xmlns="http://www.w3.org/2000/svg" version="1.1" xmlns:xlink="http://www.w3.org/1999/xlink" xmlns:svgjs="http://svgjs.dev/svgjs" viewBox="0 0 16.921560065002463 16.758111261275594"><g transform="matrix(1,0,0,1,1.403299807891858,13.388836453383737)"><g><path d=" M 0.18 0.9967499999999998 Q 0.0615 0.9089999999999998 0.0525 0.7454999999999998 L 0.366 0.7454999999999998 Q 0.3705 0.8009999999999998 0.399 0.8264999999999998 Q 0.4275 0.8519999999999999 0.47250000000000003 0.8519999999999999 Q 0.513 0.8519999999999999 0.53925 0.8317499999999999 Q 0.5655 0.8114999999999999 0.5655 0.7754999999999999 Q 0.5655 0.7289999999999999 0.522 0.7034999999999998 Q 0.47850000000000004 0.6779999999999998 0.381 0.6464999999999999 Q 0.2775 0.6119999999999999 0.21375 0.5797499999999998 Q 0.15 0.5474999999999999 0.10275000000000001 0.48524999999999985 Q 0.0555 0.4229999999999998 0.0555 0.3224999999999998 Q 0.0555 0.2204999999999998 0.1065 0.14774999999999983 Q 0.1575 0.07499999999999984 0.2475 0.03749999999999987 Q 0.3375 -2.220446049250313e-16 0.4515 -2.220446049250313e-16 Q 0.636 -2.220446049250313e-16 0.74625 0.08624999999999983 Q 0.8565 0.17249999999999988 0.864 0.3284999999999998 L 0.5445 0.3284999999999998 Q 0.543 0.28049999999999986 0.51525 0.25649999999999984 Q 0.4875 0.23249999999999982 0.444 0.23249999999999982 Q 0.41100000000000003 0.23249999999999982 0.39 0.2519999999999998 Q 0.369 0.27149999999999985 0.369 0.3074999999999998 Q 0.369 0.3374999999999998 0.39225 0.35924999999999985 Q 0.41550000000000004 0.3809999999999998 0.45 0.3967499999999998 Q 0.4845 0.41249999999999987 0.552 0.4364999999999998 Q 0.6525 0.47099999999999986 0.71775 0.5047499999999998 Q 0.783 0.5384999999999999 0.83025 0.5992499999999998 Q 0.8775000000000001 0.6599999999999998 0.8775000000000001 0.7529999999999999 Q 0.8775000000000001 0.8474999999999998 0.83025 0.9224999999999999 Q 0.783 0.9974999999999998 0.69375 1.041 Q 0.6045 1.0844999999999998 0.483 1.0844999999999998 Q 0.2985 1.0844999999999998 0.18 0.9967499999999998 M 1.95899267578125 0.016499999999999737 L 1.95899267578125 1.0739999999999998 L 1.6649926757812499 1.0739999999999998 L 1.6649926757812499 0.6494999999999999 L 1.30649267578125 0.6494999999999999 L 1.30649267578125 1.0739999999999998 L 1.01249267578125 1.0739999999999998 L 1.01249267578125 0.016499999999999737 L 1.30649267578125 0.016499999999999737 L 1.30649267578125 0.4139999999999998 L 1.6649926757812499 0.4139999999999998 L 1.6649926757812499 0.016499999999999737 L 1.95899267578125 0.016499999999999737 M 2.794464111328125 0.9014999999999999 L 2.419464111328125 0.9014999999999999 L 2.362464111328125 1.0739999999999998 L 2.053464111328125 1.0739999999999998 L 2.438964111328125 0.016499999999999737 L 2.777964111328125 0.016499999999999737 L 3.1619641113281247 1.0739999999999998 L 2.851464111328125 1.0739999999999998 L 2.794464111328125 0.9014999999999999 M 2.720964111328125 0.6764999999999999 L 2.606964111328125 0.3344999999999998 L 2.4944641113281247 0.6764999999999999 L 2.720964111328125 0.6764999999999999 M 3.9667214355468747 0.08324999999999982 Q 4.091971435546875 0.1499999999999998 4.159471435546875 0.2699999999999998 Q 4.226971435546875 0.3899999999999998 4.226971435546875 0.5444999999999999 Q 4.226971435546875 0.6974999999999998 4.158721435546875 0.8174999999999999 Q 4.090471435546875 0.9374999999999998 3.9652214355468747 1.00575 Q 3.839971435546875 1.0739999999999998 3.6749714355468748 1.0739999999999998 L 3.256471435546875 1.0739999999999998 L 3.256471435546875 0.016499999999999737 L 3.6749714355468748 0.016499999999999737 Q 3.841471435546875 0.016499999999999737 3.9667214355468747 0.08324999999999982 M 3.854971435546875 0.7439999999999998 Q 3.928471435546875 0.6734999999999998 3.928471435546875 0.5444999999999999 Q 3.928471435546875 0.4139999999999998 3.854971435546875 0.3427499999999998 Q 3.781471435546875 0.27149999999999985 3.652471435546875 0.27149999999999985 L 3.550471435546875 0.27149999999999985 L 3.550471435546875 0.8144999999999998 L 3.652471435546875 0.8144999999999998 Q 3.781471435546875 0.8144999999999998 3.854971435546875 0.7439999999999998 M 4.591449462890624 1.0147499999999998 Q 4.466949462890625 0.9449999999999998 4.394199462890625 0.8212499999999998 Q 4.321449462890625 0.6974999999999998 4.321449462890625 0.5414999999999999 Q 4.321449462890625 0.38549999999999984 4.394199462890625 0.2617499999999998 Q 4.466949462890625 0.1379999999999998 4.591449462890624 0.06899999999999973 Q 4.715949462890625 -2.220446049250313e-16 4.864449462890625 -2.220446049250313e-16 Q 5.014449462890624 -2.220446049250313e-16 5.138199462890625 0.06899999999999973 Q 5.261949462890625 0.1379999999999998 5.333949462890625 0.2617499999999998 Q 5.405949462890625 0.38549999999999984 5.405949462890625 0.5414999999999999 Q 5.405949462890625 0.6974999999999998 5.333949462890625 0.8212499999999998 Q 5.261949462890625 0.9449999999999998 5.137449462890625 1.0147499999999998 Q 5.012949462890624 1.0844999999999998 4.864449462890625 1.0844999999999998 Q 4.715949462890625 1.0844999999999998 4.591449462890624 1.0147499999999998 M 5.042199462890625 0.7379999999999998 Q 5.107449462890624 0.6644999999999999 5.107449462890624 0.5414999999999999 Q 5.107449462890624 0.41549999999999987 5.042199462890625 0.3427499999999998 Q 4.976949462890625 0.2699999999999998 4.864449462890625 0.2699999999999998 Q 4.750449462890625 0.2699999999999998 4.685949462890624 0.3427499999999998 Q 4.621449462890625 0.41549999999999987 4.621449462890625 0.5414999999999999 Q 4.621449462890625 0.6659999999999998 4.685949462890624 0.7387499999999998 Q 4.750449462890625 0.8114999999999999 4.864449462890625 0.8114999999999999 Q 4.976949462890625 0.8114999999999999 5.042199462890625 0.7379999999999998 M 7.025930419921875 0.016499999999999737 L 6.766430419921875 1.0739999999999998 L 6.404930419921874 1.0739999999999998 L 6.259430419921875 0.4259999999999998 L 6.110930419921875 1.0739999999999998 L 5.749430419921874 1.0739999999999998 L 5.4929304199218745 0.016499999999999737 L 5.810930419921875 0.016499999999999737 L 5.933930419921874 0.7394999999999998 L 6.100430419921874 0.016499999999999737 L 6.422930419921875 0.016499999999999737 L 6.584930419921875 0.7334999999999998 L 6.707930419921874 0.016499999999999737 L 7.025930419921875 0.016499999999999737 M 8.256632080078125 0.6232499999999999 Q 8.311382080078126 0.6944999999999999 8.311382080078126 0.7859999999999998 Q 8.311382080078126 0.9209999999999998 8.218382080078126 0.9974999999999998 Q 8.125382080078124 1.0739999999999998 7.9573820800781245 1.0739999999999998 L 7.433882080078124 1.0739999999999998 L 7.433882080078124 0.016499999999999737 L 7.940882080078125 0.016499999999999737 Q 8.102882080078125 0.016499999999999737 8.195132080078125 0.0884999999999998 Q 8.287382080078125 0.16049999999999986 8.287382080078125 0.2909999999999998 Q 8.287382080078125 0.3839999999999998 8.238632080078125 0.4462499999999998 Q 8.189882080078124 0.5084999999999998 8.108882080078125 0.5309999999999998 Q 8.201882080078125 0.5519999999999998 8.256632080078125 0.6232499999999999 M 7.727882080078125 0.4364999999999998 L 7.876382080078125 0.4364999999999998 Q 7.987382080078125 0.4364999999999998 7.987382080078125 0.34499999999999986 Q 7.987382080078125 0.25049999999999983 7.876382080078125 0.25049999999999983 L 7.727882080078125 0.25049999999999983 L 7.727882080078125 0.4364999999999998 M 8.009882080078125 0.7439999999999998 Q 8.009882080078125 0.6959999999999998 7.9806320800781245 0.6704999999999999 Q 7.951382080078124 0.6449999999999998 7.897382080078125 0.6449999999999998 L 7.727882080078125 0.6449999999999998 L 7.727882080078125 0.8369999999999999 L 7.898882080078125 0.8369999999999999 Q 8.009882080078125 0.8369999999999999 8.009882080078125 0.7439999999999998 M 8.732912841796875 0.8489999999999999 L 9.061412841796875 0.8489999999999999 L 9.061412841796875 1.0739999999999998 L 8.438912841796874 1.0739999999999998 L 8.438912841796874 0.016499999999999737 L 8.732912841796875 0.016499999999999737 L 8.732912841796875 0.8489999999999999 M 9.407954589843749 1.0147499999999998 Q 9.28345458984375 0.9449999999999998 9.210704589843749 0.8212499999999998 Q 9.13795458984375 0.6974999999999998 9.13795458984375 0.5414999999999999 Q 9.13795458984375 0.38549999999999984 9.210704589843749 0.2617499999999998 Q 9.28345458984375 0.1379999999999998 9.407954589843749 0.06899999999999973 Q 9.53245458984375 -2.220446049250313e-16 9.680954589843749 -2.220446049250313e-16 Q 9.83095458984375 -2.220446049250313e-16 9.95470458984375 0.06899999999999973 Q 10.07845458984375 0.1379999999999998 10.150454589843749 0.2617499999999998 Q 10.22245458984375 0.38549999999999984 10.22245458984375 0.5414999999999999 Q 10.22245458984375 0.6974999999999998 10.150454589843749 0.8212499999999998 Q 10.07845458984375 0.9449999999999998 9.95395458984375 1.0147499999999998 Q 9.829454589843749 1.0844999999999998 9.680954589843749 1.0844999999999998 Q 9.53245458984375 1.0844999999999998 9.407954589843749 1.0147499999999998 M 9.85870458984375 0.7379999999999998 Q 9.92395458984375 0.6644999999999999 9.92395458984375 0.5414999999999999 Q 9.92395458984375 0.41549999999999987 9.85870458984375 0.3427499999999998 Q 9.79345458984375 0.2699999999999998 9.680954589843749 0.2699999999999998 Q 9.56695458984375 0.2699999999999998 9.50245458984375 0.3427499999999998 Q 9.43795458984375 0.41549999999999987 9.43795458984375 0.5414999999999999 Q 9.43795458984375 0.6659999999999998 9.50245458984375 0.7387499999999998 Q 9.56695458984375 0.8114999999999999 9.680954589843749 0.8114999999999999 Q 9.79345458984375 0.8114999999999999 9.85870458984375 0.7379999999999998 M 11.014435546875 1.0739999999999998 L 10.808935546874999 0.7754999999999999 L 10.633435546874999 1.0739999999999998 L 10.298935546874999 1.0739999999999998 L 10.642435546875 0.5324999999999999 L 10.286935546875 0.016499999999999737 L 10.633435546874999 0.016499999999999737 L 10.832935546875 0.3074999999999998 L 11.003935546874999 0.016499999999999737 L 11.338435546874999 0.016499999999999737 L 10.999435546874999 0.5489999999999998 L 11.360935546875 1.0739999999999998 L 11.014435546875 1.0739999999999998 M 11.7539560546875 0.016499999999999737 L 11.7539560546875 1.0739999999999998 L 11.459956054687499 1.0739999999999998 L 11.459956054687499 0.016499999999999737 L 11.7539560546875 0.016499999999999737 M 12.58943115234375 0.9014999999999999 L 12.21443115234375 0.9014999999999999 L 12.157431152343749 1.0739999999999998 L 11.84843115234375 1.0739999999999998 L 12.23393115234375 0.016499999999999737 L 12.572931152343749 0.016499999999999737 L 12.95693115234375 1.0739999999999998 L 12.64643115234375 1.0739999999999998 L 12.58943115234375 0.9014999999999999 M 12.51593115234375 0.6764999999999999 L 12.40193115234375 0.3344999999999998 L 12.289431152343749 0.6764999999999999 L 12.51593115234375 0.6764999999999999 M 14.030938476562499 1.0739999999999998 L 13.7369384765625 1.0739999999999998 L 13.3454384765625 0.4829999999999999 L 13.3454384765625 1.0739999999999998 L 13.051438476562499 1.0739999999999998 L 13.051438476562499 0.016499999999999737 L 13.3454384765625 0.016499999999999737 L 13.7369384765625 0.6149999999999998 L 13.7369384765625 0.016499999999999737 L 14.030938476562499 0.016499999999999737 L 14.030938476562499 1.0739999999999998" fill="#0e0904" fill-rule="nonzero"></path></g><g><path d=" M 4.979210083007811 1.68735 Q 4.9582100830078115 1.7252249999999998 4.914710083007812 1.7484749999999998 Q 4.871210083007811 1.7717249999999998 4.806710083007811 1.7717249999999998 L 4.727210083007812 1.7717249999999998 L 4.727210083007812 1.9607249999999998 L 4.598960083007811 1.9607249999999998 L 4.598960083007811 1.4342249999999999 L 4.806710083007811 1.4342249999999999 Q 4.869710083007812 1.4342249999999999 4.913210083007812 1.4559749999999998 Q 4.9567100830078115 1.477725 4.978460083007811 1.5159749999999999 Q 5.000210083007811 1.5542249999999997 5.000210083007811 1.6037249999999998 Q 5.000210083007811 1.6494749999999998 4.979210083007811 1.68735 M 4.851710083007811 1.652475 Q 4.869710083007812 1.6352249999999997 4.869710083007812 1.6037249999999998 Q 4.869710083007812 1.5722249999999998 4.851710083007811 1.5549749999999998 Q 4.833710083007811 1.5377249999999998 4.796960083007812 1.5377249999999998 L 4.727210083007812 1.5377249999999998 L 4.727210083007812 1.669725 L 4.796960083007812 1.669725 Q 4.833710083007811 1.669725 4.851710083007811 1.652475 M 5.335477661132812 1.9607249999999998 L 5.225977661132811 1.7619749999999998 L 5.195227661132812 1.7619749999999998 L 5.195227661132812 1.9607249999999998 L 5.066977661132811 1.9607249999999998 L 5.066977661132811 1.4342249999999999 L 5.282227661132811 1.4342249999999999 Q 5.344477661132811 1.4342249999999999 5.388352661132811 1.4559749999999998 Q 5.432227661132811 1.477725 5.453977661132811 1.5155999999999998 Q 5.475727661132812 1.5534749999999997 5.475727661132812 1.5999749999999997 Q 5.475727661132812 1.652475 5.446102661132811 1.6937249999999997 Q 5.416477661132811 1.734975 5.358727661132812 1.752225 L 5.480227661132811 1.9607249999999998 L 5.335477661132812 1.9607249999999998 M 5.195227661132812 1.6712249999999997 L 5.274727661132811 1.6712249999999997 Q 5.3099776611328116 1.6712249999999997 5.327602661132811 1.6539749999999998 Q 5.345227661132811 1.6367249999999998 5.345227661132811 1.605225 Q 5.345227661132811 1.5752249999999999 5.327602661132811 1.5579749999999999 Q 5.3099776611328116 1.540725 5.274727661132811 1.540725 L 5.195227661132812 1.540725 L 5.195227661132812 1.6712249999999997 M 5.668835815429686 1.9314749999999998 Q 5.606960815429686 1.8969749999999999 5.570585815429686 1.8350999999999997 Q 5.534210815429686 1.7732249999999998 5.534210815429686 1.6959749999999998 Q 5.534210815429686 1.6187249999999997 5.570585815429686 1.5572249999999999 Q 5.606960815429686 1.4957249999999997 5.668835815429686 1.4612249999999998 Q 5.730710815429687 1.4267249999999998 5.804960815429686 1.4267249999999998 Q 5.879210815429686 1.4267249999999998 5.941085815429687 1.4612249999999998 Q 6.002960815429686 1.4957249999999997 6.038585815429686 1.5572249999999999 Q 6.074210815429686 1.6187249999999997 6.074210815429686 1.6959749999999998 Q 6.074210815429686 1.7732249999999998 6.038210815429686 1.8350999999999997 Q 6.002210815429686 1.8969749999999999 5.940710815429687 1.9314749999999998 Q 5.879210815429686 1.9659749999999998 5.804960815429686 1.9659749999999998 Q 5.730710815429687 1.9659749999999998 5.668835815429686 1.9314749999999998 M 5.905835815429686 1.8069749999999998 Q 5.943710815429686 1.7649749999999997 5.943710815429686 1.6959749999999998 Q 5.943710815429686 1.6262249999999998 5.905835815429686 1.5845999999999998 Q 5.8679608154296865 1.5429749999999998 5.804960815429686 1.5429749999999998 Q 5.741210815429686 1.5429749999999998 5.7033358154296865 1.5842249999999998 Q 5.665460815429686 1.6254749999999998 5.665460815429686 1.6959749999999998 Q 5.665460815429686 1.7657249999999998 5.7033358154296865 1.8073499999999998 Q 5.741210815429686 1.8489749999999998 5.804960815429686 1.8489749999999998 Q 5.8679608154296865 1.8489749999999998 5.905835815429686 1.8069749999999998 M 6.488218872070311 1.4672249999999998 Q 6.5504688720703115 1.500225 6.584593872070311 1.55985 Q 6.618718872070311 1.6194749999999998 6.618718872070311 1.6974749999999998 Q 6.618718872070311 1.7747249999999999 6.584593872070311 1.8347249999999997 Q 6.5504688720703115 1.8947249999999998 6.487843872070311 1.927725 Q 6.425218872070311 1.9607249999999998 6.342718872070312 1.9607249999999998 L 6.145468872070311 1.9607249999999998 L 6.145468872070311 1.4342249999999999 L 6.342718872070312 1.4342249999999999 Q 6.425968872070311 1.4342249999999999 6.488218872070311 1.4672249999999998 M 6.447718872070311 1.809975 Q 6.488218872070311 1.770225 6.488218872070311 1.6974749999999998 Q 6.488218872070311 1.6247249999999998 6.447718872070311 1.5842249999999998 Q 6.407218872070311 1.5437249999999998 6.334468872070311 1.5437249999999998 L 6.273718872070312 1.5437249999999998 L 6.273718872070312 1.8497249999999998 L 6.334468872070311 1.8497249999999998 Q 6.407218872070311 1.8497249999999998 6.447718872070311 1.809975 M 6.816711181640624 1.4342249999999999 L 6.816711181640624 1.7492249999999998 Q 6.816711181640624 1.7964749999999998 6.839961181640624 1.821975 Q 6.863211181640624 1.8474749999999998 6.908211181640624 1.8474749999999998 Q 6.953211181640624 1.8474749999999998 6.977211181640624 1.821975 Q 7.001211181640624 1.7964749999999998 7.001211181640624 1.7492249999999998 L 7.001211181640624 1.4342249999999999 L 7.1294611816406235 1.4342249999999999 L 7.1294611816406235 1.7484749999999998 Q 7.1294611816406235 1.8189749999999998 7.099461181640624 1.8677249999999999 Q 7.069461181640624 1.916475 7.018836181640624 1.9412249999999998 Q 6.968211181640624 1.9659749999999998 6.905961181640624 1.9659749999999998 Q 6.843711181640623 1.9659749999999998 6.794586181640624 1.9415999999999998 Q 6.745461181640624 1.9172249999999997 6.716961181640624 1.8680999999999999 Q 6.688461181640624 1.8189749999999998 6.688461181640624 1.7484749999999998 L 6.688461181640624 1.4342249999999999 L 6.816711181640624 1.4342249999999999 M 7.231473999023437 1.5575999999999999 Q 7.265223999023436 1.4964749999999998 7.325598999023436 1.4623499999999998 Q 7.385973999023436 1.4282249999999999 7.4624739990234366 1.4282249999999999 Q 7.5562239990234366 1.4282249999999999 7.622973999023436 1.477725 Q 7.689723999023436 1.5272249999999998 7.712223999023436 1.6127249999999997 L 7.571223999023436 1.6127249999999997 Q 7.5554739990234365 1.5797249999999998 7.526598999023436 1.5624749999999998 Q 7.497723999023436 1.5452249999999998 7.4609739990234365 1.5452249999999998 Q 7.401723999023436 1.5452249999999998 7.364973999023436 1.5864749999999999 Q 7.328223999023436 1.6277249999999999 7.328223999023436 1.6967249999999998 Q 7.328223999023436 1.7657249999999998 7.364973999023436 1.8069749999999998 Q 7.401723999023436 1.8482249999999998 7.4609739990234365 1.8482249999999998 Q 7.497723999023436 1.8482249999999998 7.526598999023436 1.8309749999999998 Q 7.5554739990234365 1.8137249999999998 7.571223999023436 1.780725 L 7.712223999023436 1.780725 Q 7.689723999023436 1.8662249999999998 7.622973999023436 1.9153499999999999 Q 7.5562239990234366 1.9644749999999997 7.4624739990234366 1.9644749999999997 Q 7.385973999023436 1.9644749999999997 7.325598999023436 1.9303499999999998 Q 7.265223999023436 1.8962249999999998 7.231473999023437 1.8354749999999997 Q 7.197723999023436 1.7747249999999999 7.197723999023436 1.6967249999999998 Q 7.197723999023436 1.6187249999999997 7.231473999023437 1.5575999999999999 M 8.169741943359373 1.4342249999999999 L 8.169741943359373 1.5369749999999998 L 8.030241943359373 1.5369749999999998 L 8.030241943359373 1.9607249999999998 L 7.9019919433593735 1.9607249999999998 L 7.9019919433593735 1.5369749999999998 L 7.7624919433593735 1.5369749999999998 L 7.7624919433593735 1.4342249999999999 L 8.169741943359373 1.4342249999999999 M 8.362494506835937 1.4342249999999999 L 8.362494506835937 1.9607249999999998 L 8.234244506835937 1.9607249999999998 L 8.234244506835937 1.4342249999999999 L 8.362494506835937 1.4342249999999999 M 8.568356689453125 1.9314749999999998 Q 8.506481689453125 1.8969749999999999 8.470106689453125 1.8350999999999997 Q 8.433731689453124 1.7732249999999998 8.433731689453124 1.6959749999999998 Q 8.433731689453124 1.6187249999999997 8.470106689453125 1.5572249999999999 Q 8.506481689453125 1.4957249999999997 8.568356689453125 1.4612249999999998 Q 8.630231689453124 1.4267249999999998 8.704481689453125 1.4267249999999998 Q 8.778731689453124 1.4267249999999998 8.840606689453125 1.4612249999999998 Q 8.902481689453124 1.4957249999999997 8.938106689453125 1.5572249999999999 Q 8.973731689453125 1.6187249999999997 8.973731689453125 1.6959749999999998 Q 8.973731689453125 1.7732249999999998 8.937731689453125 1.8350999999999997 Q 8.901731689453126 1.8969749999999999 8.840231689453125 1.9314749999999998 Q 8.778731689453124 1.9659749999999998 8.704481689453125 1.9659749999999998 Q 8.630231689453124 1.9659749999999998 8.568356689453125 1.9314749999999998 M 8.805356689453125 1.8069749999999998 Q 8.843231689453125 1.7649749999999997 8.843231689453125 1.6959749999999998 Q 8.843231689453125 1.6262249999999998 8.805356689453125 1.5845999999999998 Q 8.767481689453124 1.5429749999999998 8.704481689453125 1.5429749999999998 Q 8.640731689453125 1.5429749999999998 8.602856689453125 1.5842249999999998 Q 8.564981689453125 1.6254749999999998 8.564981689453125 1.6959749999999998 Q 8.564981689453125 1.7657249999999998 8.602856689453125 1.8073499999999998 Q 8.640731689453125 1.8489749999999998 8.704481689453125 1.8489749999999998 Q 8.767481689453124 1.8489749999999998 8.805356689453125 1.8069749999999998 M 9.51598974609375 1.9607249999999998 L 9.38773974609375 1.9607249999999998 L 9.17323974609375 1.6359749999999997 L 9.17323974609375 1.9607249999999998 L 9.04498974609375 1.9607249999999998 L 9.04498974609375 1.4342249999999999 L 9.17323974609375 1.4342249999999999 L 9.38773974609375 1.7604749999999998 L 9.38773974609375 1.4342249999999999 L 9.51598974609375 1.4342249999999999 L 9.51598974609375 1.9607249999999998" fill="#0e0904" fill-rule="nonzero"></path></g><g clip-path="url(#SvgjsClipPath1005)"><g clip-path="url(#SvgjsClipPath100047dfa1c1-581f-49f8-863d-2e261d1b9c74)"><path d=" M 12.057167751968024 -7.489093895695585 L 5.707731682645415 -9.19025859474948 L 5.707731682645415 -10.341998407241197 L 13.169437385827406 -8.342176023202573 L 13.169437385827406 -2.998703239956237 L 10.469677167375275 -1.4401574530271883 L 10.469677167375275 -6.2705179140531015 L 6.820001316504798 -7.248325806038296 L 6.820001316504798 -5.605050702311827 L 5.7077316826454325 -5.903182118248115 L 5.7077316826454325 -8.698197034466293 L 11.582209935758872 -7.124126310608531 L 11.582209935758872 -3.3668284393338705 L 12.057167751968041 -3.641014613566538 L 12.057167751968041 -7.489093895695585 Z M 5.232773866436246 -10.959838270099452 L 12.057167751968024 -9.131316461325186 L 12.057167751968024 -10.283056273816904 L 5.707731682645415 -11.984484107395028 L 4.1202410980526505 -11.067986559552061 L 4.1202410980526505 -6.328670643904748 L 5.232773866436246 -6.03053922796846 L 5.232773866436246 -10.959838270099452 Z M 3.6455464163677025 -5.96343992429349 L 3.6455464163677025 -10.793800385319393 L 0.9457861979155721 -9.234991463866141 L 0.9457861979155721 -3.891781815144011 L 8.407755035621767 -1.891959431105393 L 8.407755035621767 -3.043436109072889 L 2.0583189662991677 -4.744863942651015 L 2.0583189662991677 -8.592153821207415 L 2.533276782508337 -8.866339995440072 L 2.533276782508337 -5.109305258689625 L 8.407755035621767 -3.5352345348318632 L 8.407755035621767 -6.330249451050051 L 7.29522226723818 -6.628380866986339 L 7.29522226723818 -4.984842628735647 L 3.645809550891933 -5.962913655245064 Z M 8.881923448258298 -1.2733301646744994 L 2.0575295627265033 -3.101851973448758 L 2.0575295627265033 -1.9501121609570404 L 8.406965632049111 -0.24894746190313555 L 9.994193082117663 -1.1654450097461044 L 9.994193082117663 -5.907655405159776 L 8.881923448258298 -6.205786821096064 Z" fill="url(#gradient-e421a40e-dca2-43a8-b277-053cb5c377cc_0)" transform="matrix(1,0,0,1,0,0)" fill-rule="evenodd"></path></g></g></g><defs><clipPath id="SvgjsClipPath1005"><path d=" M 0.9455230633913505 -11.98553664549188 h 12.223914322436046 v 11.73553664549188 h -12.223914322436046 Z"></path></clipPath><clipPath id="SvgjsClipPath100047dfa1c1-581f-49f8-863d-2e261d1b9c74"><path d=" M 0.9455230633913505 -11.98553664549188 L 13.169437385827397 -11.98553664549188 L 13.169437385827397 -0.25 L 0.9455230633913505 -0.25 Z"></path></clipPath><linearGradient id="gradient-e421a40e-dca2-43a8-b277-053cb5c377cc_0" x1="0" x2="1" y1="0" y2="1"><stop stop-color="#3361e1" offset="0"></stop><stop stop-color="#000000" offset="1"></stop></linearGradient></defs></svg>